HIERARCHY
ROOT mixamorig:Hips
{
	OFFSET 0.000000 201.639420 0.000000
	CHANNELS 6 Xposition Yposition Zposition Xrotation Yrotation Zrotation
	JOINT mixamorig:Spine
	{
		OFFSET 0.006200 19.524994 -2.481800
		CHANNELS 3 Xrotation Yrotation Zrotation
		JOINT mixamorig:Spine1
		{
			OFFSET -0.000900 22.835007 -2.825400
			CHANNELS 3 Xrotation Yrotation Zrotation
			JOINT mixamorig:Spine2
			{
				OFFSET -0.020600 26.552490 -3.193300
				CHANNELS 3 Xrotation Yrotation Zrotation
				JOINT mixamorig:Neck
				{
					OFFSET -0.060000 30.701813 1.352200
					CHANNELS 3 Xrotation Yrotation Zrotation
					JOINT mixamorig:Head
					{
						OFFSET -0.087200 22.547607 3.670900
						CHANNELS 3 Xrotation Yrotation Zrotation
						JOINT mixamorig:HeadTop_End
						{
							OFFSET -0.830600 40.355194 7.893500
							CHANNELS 3 Xrotation Yrotation Zrotation
							End Site
							{
								OFFSET 0.000000 30.592346 0.000000
							}
						}
						JOINT mixamorig:RightEye
						{
							OFFSET -6.302100 18.118591 16.197100
							CHANNELS 3 Xrotation Yrotation Zrotation
							End Site
							{
								OFFSET 0.000000 30.592346 0.000000
							}
						}
						JOINT mixamorig:LeftEye
						{
							OFFSET 6.741500 18.382690 16.401899
							CHANNELS 3 Xrotation Yrotation Zrotation
							End Site
							{
								OFFSET 0.000000 30.592346 0.000000
							}
						}
					}
				}
				JOINT mixamorig:LeftShoulder
				{
					OFFSET 11.924900 18.230499 1.425400
					CHANNELS 3 Xrotation Yrotation Zrotation
					JOINT mixamorig:LeftArm
					{
						OFFSET 25.435989 -0.697632 -5.229300
						CHANNELS 3 Xrotation Yrotation Zrotation
						JOINT mixamorig:LeftForeArm
						{
							OFFSET 54.684776 0.000000 0.000000
							CHANNELS 3 Xrotation Yrotation Zrotation
							JOINT mixamorig:LeftHand
							{
								OFFSET 55.098175 0.000000 0.000000
								CHANNELS 3 Xrotation Yrotation Zrotation
								JOINT mixamorig:LeftHandMiddle1
								{
									OFFSET 23.369751 0.000000 0.000000
									CHANNELS 3 Xrotation Yrotation Zrotation
									JOINT mixamorig:LeftHandMiddle2
									{
										OFFSET 6.378677 0.000000 0.000000
										CHANNELS 3 Xrotation Yrotation Zrotation
										JOINT mixamorig:LeftHandMiddle3
										{
											OFFSET 6.148331 0.000000 0.000000
											CHANNELS 3 Xrotation Yrotation Zrotation
											JOINT mixamorig:LeftHandMiddle4
											{
												OFFSET 6.582504 0.000000 0.000000
												CHANNELS 3 Xrotation Yrotation Zrotation
												End Site
												{
													OFFSET -1.168900 6.395691 1.028606
												}
											}
										}
									}
								}
								JOINT mixamorig:LeftHandThumb1
								{
									OFFSET 7.235672 -3.848206 5.434273
									CHANNELS 3 Xrotation Yrotation Zrotation
									JOINT mixamorig:LeftHandThumb2
									{
										OFFSET 6.568451 -3.792297 3.792300
										CHANNELS 3 Xrotation Yrotation Zrotation
										JOINT mixamorig:LeftHandThumb3
										{
											OFFSET 6.063080 -3.500519 3.500518
											CHANNELS 3 Xrotation Yrotation Zrotation
											JOINT mixamorig:LeftHandThumb4
											{
												OFFSET 4.793182 -2.767334 2.767349
												CHANNELS 3 Xrotation Yrotation Zrotation
												End Site
												{
													OFFSET 0.101639 6.054260 1.275483
												}
											}
										}
									}
								}
								JOINT mixamorig:LeftHandIndex1
								{
									OFFSET 23.101074 -0.309540 4.992809
									CHANNELS 3 Xrotation Yrotation Zrotation
									JOINT mixamorig:LeftHandIndex2
									{
										OFFSET 6.226883 0.000000 0.000000
										CHANNELS 3 Xrotation Yrotation Zrotation
										JOINT mixamorig:LeftHandIndex3
										{
											OFFSET 6.094330 0.000000 0.000000
											CHANNELS 3 Xrotation Yrotation Zrotation
											JOINT mixamorig:LeftHandIndex4
											{
												OFFSET 5.482605 0.000000 0.000000
												CHANNELS 3 Xrotation Yrotation Zrotation
												End Site
												{
													OFFSET -1.427902 5.233032 0.797164
												}
											}
										}
									}
								}
								JOINT mixamorig:LeftHandRing1
								{
									OFFSET 22.299240 0.021149 -3.964172
									CHANNELS 3 Xrotation Yrotation Zrotation
									JOINT mixamorig:LeftHandRing2
									{
										OFFSET 6.321869 0.000000 0.000000
										CHANNELS 3 Xrotation Yrotation Zrotation
										JOINT mixamorig:LeftHandRing3
										{
											OFFSET 5.899796 0.000000 0.000000
											CHANNELS 3 Xrotation Yrotation Zrotation
											JOINT mixamorig:LeftHandRing4
											{
												OFFSET 6.517899 0.000000 0.000000
												CHANNELS 3 Xrotation Yrotation Zrotation
												End Site
												{
													OFFSET -1.637299 6.232208 0.980890
												}
											}
										}
									}
								}
								JOINT mixamorig:LeftHandPinky1
								{
									OFFSET 20.463791 -0.302338 -8.562233
									CHANNELS 3 Xrotation Yrotation Zrotation
									JOINT mixamorig:LeftHandPinky2
									{
										OFFSET 6.908646 0.000000 0.000000
										CHANNELS 3 Xrotation Yrotation Zrotation
										JOINT mixamorig:LeftHandPinky3
										{
											OFFSET 4.622849 0.000000 0.000000
											CHANNELS 3 Xrotation Yrotation Zrotation
											JOINT mixamorig:LeftHandPinky4
											{
												OFFSET 5.216080 0.000000 0.000000
												CHANNELS 3 Xrotation Yrotation Zrotation
												End Site
												{
													OFFSET -0.606308 5.116241 0.814926
												}
											}
										}
									}
								}
							}
						}
					}
				}
				JOINT mixamorig:RightShoulder
				{
					OFFSET -12.001300 18.284088 1.348900
					CHANNELS 3 Xrotation Yrotation Zrotation
					JOINT mixamorig:RightArm
					{
						OFFSET -25.308500 -0.751312 -5.164599
						CHANNELS 3 Xrotation Yrotation Zrotation
						JOINT mixamorig:RightForeArm
						{
							OFFSET -54.684429 0.000000 0.000000
							CHANNELS 3 Xrotation Yrotation Zrotation
							JOINT mixamorig:RightHand
							{
								OFFSET -55.150291 0.000000 0.000000
								CHANNELS 3 Xrotation Yrotation Zrotation
								JOINT mixamorig:RightHandMiddle1
								{
									OFFSET -23.317566 0.000000 0.000000
									CHANNELS 3 Xrotation Yrotation Zrotation
									JOINT mixamorig:RightHandMiddle2
									{
										OFFSET -6.378403 0.000000 0.000000
										CHANNELS 3 Xrotation Yrotation Zrotation
										JOINT mixamorig:RightHandMiddle3
										{
											OFFSET -6.148193 0.000000 0.000000
											CHANNELS 3 Xrotation Yrotation Zrotation
											JOINT mixamorig:RightHandMiddle4
											{
												OFFSET -6.583389 0.000000 0.000000
												CHANNELS 3 Xrotation Yrotation Zrotation
												End Site
												{
													OFFSET 1.171692 6.395905 1.029786
												}
											}
										}
									}
								}
								JOINT mixamorig:RightHandThumb1
								{
									OFFSET -7.190521 -3.860474 5.435846
									CHANNELS 3 Xrotation Yrotation Zrotation
									JOINT mixamorig:RightHandThumb2
									{
										OFFSET -6.567429 -3.791718 3.791708
										CHANNELS 3 Xrotation Yrotation Zrotation
										JOINT mixamorig:RightHandThumb3
										{
											OFFSET -6.062469 -3.500153 3.500166
											CHANNELS 3 Xrotation Yrotation Zrotation
											JOINT mixamorig:RightHandThumb4
											{
												OFFSET -4.792618 -2.767029 2.767022
												CHANNELS 3 Xrotation Yrotation Zrotation
												End Site
												{
													OFFSET -0.100327 6.053253 1.276754
												}
											}
										}
									}
								}
								JOINT mixamorig:RightHandIndex1
								{
									OFFSET -23.048981 -0.310791 4.992554
									CHANNELS 3 Xrotation Yrotation Zrotation
									JOINT mixamorig:RightHandIndex2
									{
										OFFSET -6.227539 0.000000 0.000000
										CHANNELS 3 Xrotation Yrotation Zrotation
										JOINT mixamorig:RightHandIndex3
										{
											OFFSET -6.095047 0.000000 0.000000
											CHANNELS 3 Xrotation Yrotation Zrotation
											JOINT mixamorig:RightHandIndex4
											{
												OFFSET -5.484772 0.000000 0.000000
												CHANNELS 3 Xrotation Yrotation Zrotation
												End Site
												{
													OFFSET 1.420593 5.237305 0.797056
												}
											}
										}
									}
								}
								JOINT mixamorig:RightHandRing1
								{
									OFFSET -22.246323 0.020569 -3.963762
									CHANNELS 3 Xrotation Yrotation Zrotation
									JOINT mixamorig:RightHandRing2
									{
										OFFSET -6.322128 0.000000 0.000000
										CHANNELS 3 Xrotation Yrotation Zrotation
										JOINT mixamorig:RightHandRing3
										{
											OFFSET -5.900024 0.000000 0.000000
											CHANNELS 3 Xrotation Yrotation Zrotation
											JOINT mixamorig:RightHandRing4
											{
												OFFSET -6.518356 0.000000 0.000000
												CHANNELS 3 Xrotation Yrotation Zrotation
												End Site
												{
													OFFSET 1.636398 6.232697 0.982186
												}
											}
										}
									}
								}
								JOINT mixamorig:RightHandPinky1
								{
									OFFSET -20.411011 -0.303314 -8.561701
									CHANNELS 3 Xrotation Yrotation Zrotation
									JOINT mixamorig:RightHandPinky2
									{
										OFFSET -6.907349 0.000000 0.000000
										CHANNELS 3 Xrotation Yrotation Zrotation
										JOINT mixamorig:RightHandPinky3
										{
											OFFSET -4.623840 0.000000 0.000000
											CHANNELS 3 Xrotation Yrotation Zrotation
											JOINT mixamorig:RightHandPinky4
											{
												OFFSET -5.218353 0.000000 0.000000
												CHANNELS 3 Xrotation Yrotation Zrotation
												End Site
												{
													OFFSET 0.602097 5.118835 0.816273
												}
											}
										}
									}
								}
							}
						}
					}
				}
			}
		}
	}
	JOINT mixamorig:LeftUpLeg
	{
		OFFSET 18.168400 -13.561905 -0.039000
		CHANNELS 3 Xrotation Yrotation Zrotation
		JOINT mixamorig:LeftLeg
		{
			OFFSET 0.577358 -80.825211 -3.695000
			CHANNELS 3 Xrotation Yrotation Zrotation
			JOINT mixamorig:LeftFoot
			{
				OFFSET -0.577356 -83.370262 -6.520700
				CHANNELS 3 Xrotation Yrotation Zrotation
				JOINT mixamorig:LeftToeBase
				{
					OFFSET 0.750401 -20.798306 25.135401
					CHANNELS 3 Xrotation Yrotation Zrotation
					JOINT mixamorig:LeftToe_End
					{
						OFFSET -0.000500 0.001200 19.917799
						CHANNELS 3 Xrotation Yrotation Zrotation
						End Site
						{
							OFFSET 0.000000 19.917805 0.000000
						}
					}
				}
			}
		}
	}
	JOINT mixamorig:RightUpLeg
	{
		OFFSET -18.162500 -13.585098 -0.041000
		CHANNELS 3 Xrotation Yrotation Zrotation
		JOINT mixamorig:RightLeg
		{
			OFFSET -0.595024 -80.945297 -3.631900
			CHANNELS 3 Xrotation Yrotation Zrotation
			JOINT mixamorig:RightFoot
			{
				OFFSET 0.595024 -83.218193 -6.561200
				CHANNELS 3 Xrotation Yrotation Zrotation
				JOINT mixamorig:RightToeBase
				{
					OFFSET -0.753601 -20.807106 25.115000
					CHANNELS 3 Xrotation Yrotation Zrotation
					JOINT mixamorig:RightToe_End
					{
						OFFSET 0.000299 0.001700 19.918200
						CHANNELS 3 Xrotation Yrotation Zrotation
						End Site
						{
							OFFSET 0.000000 19.918203 0.000000
						}
					}
				}
			}
		}
	}
}
MOTION
Frames: 4
Frame Time: 0.033333
-35.856979 95.487640 -80.857567 20.973745 -10.353831 8.078345 -1.225019 0.998142 2.042033 -2.263745 4.099825 -0.671498 -2.307788 4.077464 -0.677581 -3.466638 -3.973556 -0.598261 -42.447051 -28.265848 11.635898 0.000002 -0.000001 0.000003 0.000002 -0.000001 0.000003 0.000002 -0.000001 0.000003 0.373250 5.716913 -10.517281 -38.002534 -28.277282 -44.747018 -0.000007 -14.029846 -0.000024 2.304619 -1.469426 -5.271487 -0.000003 -0.001943 0.015981 -0.000001 0.001919 -0.015982 -0.000008 0.000004 -0.000001 -0.000002 -0.000001 0.000001 -1.540054 3.690188 6.142343 3.939047 7.948713 0.746813 -0.579470 1.575010 2.538718 0.000000 0.000001 -0.000002 -0.000005 0.000004 -0.000003 -0.000008 -0.000009 0.000004 0.000005 0.000001 0.000005 -0.000001 -0.000002 -0.000003 -0.000008 0.000003 -0.000003 -0.000007 -0.000003 -0.000005 -0.000001 0.000007 0.000002 0.000000 0.000000 -0.000002 -0.018092 4.054252 0.511061 -0.018091 -4.054261 -0.511066 0.000006 0.000002 -0.000001 -0.000001 -0.000003 -0.000004 0.489983 -4.174986 10.333567 -26.857707 8.101851 53.777037 -0.000012 39.262048 0.000018 22.696731 -3.307476 15.456033 -0.000007 -0.000009 -0.000005 0.000002 -0.000001 -0.000001 0.000000 0.000009 0.000012 0.000001 -0.000002 0.000003 -1.849259 -3.581796 -6.586144 4.637194 -8.634131 -0.225409 -1.273757 0.137323 -2.094861 -0.000002 0.000001 -0.000001 -0.000009 -0.000005 -0.000007 -0.000003 0.000008 0.000007 0.000005 -0.000008 -0.000013 0.000001 0.000002 -0.000003 -0.000005 -0.000003 -0.000008 0.000001 0.000003 0.000026 -0.000003 -0.000005 -0.000005 -0.000001 0.000004 0.000002 -0.000005 0.000002 0.000001 0.000001 0.000002 0.000001 -0.000004 -0.000003 -0.000006 0.000003 -0.000006 0.000003 -55.801396 -4.453461 47.565120 121.412241 8.405514 2.705348 -4.979098 0.393065 -3.288405 -56.958279 2.195065 -2.599299 0.000004 -0.000000 0.000002 0.871502 -0.194282 -16.228862 85.138383 -3.980459 -7.337339 -0.384198 0.139048 1.210659 -0.000000 0.000001 -0.000002 0.000000 -0.000000 0.000000 
-36.207237 91.588867 -74.026138 25.769814 -14.368170 7.278550 -1.450390 1.366867 3.042260 -2.765370 5.066234 1.022528 -2.820984 5.040105 1.017756 -4.106214 -3.970872 -0.540461 -43.758170 -27.856267 10.929788 0.000000 -0.000002 -0.000000 0.000000 -0.000002 -0.000000 0.000000 -0.000002 -0.000000 0.358493 5.658041 -10.173493 -39.530328 -31.253006 -43.889928 -0.000004 -15.558942 -0.000002 1.673287 -0.972421 -4.630695 -0.000001 -0.001942 0.015983 -0.000001 0.001921 -0.015982 -0.000007 0.000004 -0.000001 -0.000001 -0.000000 -0.000002 -1.540053 3.690183 6.142346 3.939044 7.948725 0.746822 -0.579464 1.574988 2.538715 0.000000 0.000002 -0.000004 -0.000005 0.000002 -0.000003 -0.000005 -0.000010 -0.000004 0.000004 0.000001 0.000002 0.000001 -0.000000 -0.000001 -0.000009 0.000003 -0.000003 -0.000004 -0.000003 -0.000002 -0.000006 0.000003 0.000001 -0.000001 -0.000002 0.000001 -0.018090 4.054252 0.511061 -0.018089 -4.054264 -0.511067 0.000005 -0.000001 -0.000002 0.000001 0.000001 0.000000 0.481648 -4.208874 10.283789 -34.325481 13.363971 52.312627 -0.000005 35.240945 -0.000011 23.607588 5.118126 4.992259 -0.000005 -0.000002 -0.000004 0.000002 0.000004 -0.000008 -0.000002 0.000003 0.000011 0.000001 -0.000002 0.000000 -1.849258 -3.581794 -6.586144 4.637199 -8.634122 -0.225402 -1.273764 0.137307 -2.094871 -0.000001 -0.000001 -0.000004 -0.000005 -0.000002 -0.000004 -0.000005 0.000008 0.000004 -0.000002 -0.000012 -0.000014 0.000002 -0.000002 0.000002 -0.000006 -0.000002 -0.000004 -0.000003 0.000005 0.000024 0.000004 -0.000007 -0.000002 -0.000005 -0.000001 -0.000000 -0.000002 0.000002 0.000001 0.000000 0.000002 -0.000000 -0.000004 -0.000008 -0.000006 0.000000 -0.000000 -0.000001 -55.158688 -3.877102 47.957982 121.588787 8.947752 3.003546 -3.383712 0.193357 -1.977963 -64.573339 5.397329 -5.488888 0.000000 -0.000001 -0.000003 1.448034 1.300282 -14.933765 78.955136 -4.957273 -9.429227 -0.970978 0.129706 1.366346 0.000021 0.000002 -0.000002 0.000002 -0.000001 0.000000 
-36.292526 87.175644 -67.140076 30.168263 -19.165022 6.935192 -1.457195 1.852927 3.876861 -2.790153 6.263117 2.624506 -2.856978 6.240334 2.617515 -4.705334 -3.768156 -0.482473 -45.585133 -26.372537 10.013289 0.000000 -0.000001 0.000002 0.000000 -0.000001 0.000002 0.000000 -0.000001 0.000002 0.357019 5.649025 -10.133041 -41.004293 -34.491161 -41.934978 -0.000007 -17.243569 -0.000013 0.871460 -1.255031 -4.165390 -0.000002 -0.001943 0.015982 0.000001 0.001920 -0.015980 -0.000006 0.000000 -0.000005 -0.000000 -0.000001 -0.000001 -1.540055 3.690187 6.142344 3.939049 7.948706 0.746813 -0.579469 1.575006 2.538725 0.000001 -0.000000 -0.000000 -0.000006 0.000002 -0.000001 -0.000010 -0.000009 -0.000005 0.000005 0.000003 0.000004 -0.000000 0.000001 -0.000000 -0.000013 0.000002 -0.000002 -0.000002 -0.000003 -0.000005 -0.000008 -0.000000 0.000001 -0.000002 -0.000001 0.000002 -0.018092 4.054250 0.511060 -0.018088 -4.054263 -0.511065 0.000007 -0.000003 -0.000003 0.000001 -0.000000 0.000001 0.479940 -4.189777 10.147799 -44.605264 17.123458 53.984200 0.000022 28.375908 -0.000029 27.224738 9.169620 -1.869084 0.000000 -0.000007 -0.000001 -0.000003 -0.000001 -0.000000 0.000005 0.000009 0.000011 -0.000004 0.000001 0.000001 -1.849249 -3.581796 -6.586145 4.637200 -8.634125 -0.225393 -1.273755 0.137305 -2.094878 -0.000004 -0.000001 0.000004 -0.000002 -0.000008 -0.000002 -0.000001 0.000009 0.000011 0.000001 -0.000014 -0.000015 -0.000002 0.000001 0.000001 0.000000 -0.000008 -0.000003 -0.000006 0.000003 0.000022 -0.000005 -0.000005 -0.000002 -0.000002 -0.000000 -0.000003 0.000002 -0.000004 -0.000002 0.000001 0.000008 -0.000000 -0.000002 -0.000006 -0.000011 -0.000001 -0.000003 -0.000000 -53.852364 -1.938765 48.855039 121.582312 8.687686 3.245408 -1.946644 0.014305 -0.508460 18.006341 20.279844 44.521430 -0.000000 0.000001 -0.000001 1.780380 3.169931 -15.999720 73.280915 -5.449308 -9.991898 -1.193854 0.149483 0.527214 -0.000004 -0.000002 0.000002 -0.000001 0.000001 -0.000001 
-37.208366 82.292587 -60.216698 34.438469 -22.544284 6.999974 -1.312977 2.138024 4.515312 -2.484052 7.002573 3.916876 -2.555929 6.989118 3.904021 -5.531207 -3.451557 -0.385104 -48.025563 -24.441323 9.379528 0.000001 0.000003 0.000000 0.000001 0.000003 0.000000 0.000001 0.000003 0.000000 0.349185 5.541054 -9.807200 -43.974042 -37.989621 -40.581309 0.000003 -17.968978 0.000010 0.557509 -2.627915 -3.334223 -0.000002 -0.001941 0.015980 0.000002 0.001923 -0.015984 -0.000004 0.000004 -0.000003 0.000002 0.000001 0.000001 -1.540055 3.690186 6.142345 3.939041 7.948714 0.746808 -0.579466 1.575004 2.538714 0.000001 0.000001 0.000000 -0.000007 0.000000 -0.000003 -0.000008 -0.000011 -0.000004 0.000005 0.000006 -0.000000 -0.000000 -0.000000 0.000002 -0.000010 0.000002 -0.000001 -0.000002 -0.000005 -0.000003 -0.000004 0.000002 0.000000 -0.000000 0.000000 -0.000000 -0.018093 4.054252 0.511060 -0.018089 -4.054262 -0.511064 0.000008 -0.000001 0.000000 -0.000002 -0.000001 0.000000 0.501883 -4.062733 10.109755 -56.416864 18.890148 57.737877 -0.000031 19.845497 0.000017 33.354218 10.072343 -7.595146 -0.000002 -0.000005 0.000000 -0.000002 0.000001 -0.000001 0.000009 0.000005 0.000010 -0.000001 0.000001 -0.000004 -1.849252 -3.581795 -6.586138 4.637202 -8.634120 -0.225398 -1.273762 0.137316 -2.094862 -0.000001 -0.000001 -0.000001 -0.000003 -0.000000 -0.000002 -0.000002 0.000008 0.000008 0.000006 -0.000012 -0.000015 0.000002 -0.000000 0.000003 -0.000005 -0.000002 -0.000005 0.000002 0.000005 0.000018 -0.000003 -0.000007 -0.000006 -0.000002 -0.000001 0.000001 -0.000003 -0.000001 0.000001 0.000000 0.000001 -0.000002 -0.000002 -0.000005 -0.000005 0.000002 -0.000006 -0.000003 -53.008985 -0.094715 51.071397 121.194658 7.690895 3.332977 -1.286581 -0.085005 0.470486 54.390364 5.456107 19.433599 -0.000001 0.000002 0.000001 1.959395 3.134086 -17.381809 68.156081 -5.576330 -10.017765 -1.155495 0.167873 -0.357101 0.000006 0.000002 0.000004 0.000002 -0.000001 0.000000 
